<svg xmlns="http://www.w3.org/2000/svg" xmlns:xlink="http://www.w3.org/1999/xlink" width="500" zoomAndPan="magnify" viewBox="0 0 375 374.999991" height="500" preserveAspectRatio="xMidYMid meet" version="1.0"><defs><g/><clipPath id="476ca12505"><path d="M 18.089844 45.960938 L 359.859375 45.960938 L 359.859375 162.085938 L 18.089844 162.085938 Z M 18.089844 45.960938 " clip-rule="nonzero"/></clipPath></defs><rect x="-37.5" width="450" fill="#ffffff" y="-37.499999" height="449.999989" fill-opacity="1"/><g clip-path="url(#476ca12505)"><path fill="#000000" d="M 18.089844 45.960938 L 359.671875 45.960938 L 359.671875 162.085938 L 18.089844 162.085938 Z M 18.089844 45.960938 " fill-opacity="1" fill-rule="nonzero"/></g><g fill="#000000" fill-opacity="1"><g transform="translate(89.513142, 217.649986)"><g><path d="M 1.046875 -25.234375 L 21.921875 -25.234375 L 21.921875 -16.734375 L 16.703125 -16.734375 L 16.703125 -15.65625 L 21.921875 -15.65625 L 21.921875 -9.609375 L 16.703125 -9.609375 L 16.703125 -8.53125 L 21.921875 -8.53125 L 21.921875 -0.03125 L 1.046875 -0.03125 Z M 1.046875 -25.234375 "/></g></g></g><g fill="#000000" fill-opacity="1"><g transform="translate(112.481192, 217.649986)"><g><path d="M 19.375 -12.59375 L 19.375 0 L 6.765625 0 L 6.765625 -12.59375 L -0.28125 -25.203125 L 26.421875 -25.203125 Z M 19.375 -12.59375 "/></g></g></g><g fill="#000000" fill-opacity="1"><g transform="translate(138.617241, 217.649986)"><g><path d="M 1.046875 -25.234375 L 21.921875 -25.234375 L 21.921875 -16.734375 L 16.703125 -16.734375 L 16.703125 -15.65625 L 21.921875 -15.65625 L 21.921875 -9.609375 L 16.703125 -9.609375 L 16.703125 -8.53125 L 21.921875 -8.53125 L 21.921875 -0.03125 L 1.046875 -0.03125 Z M 1.046875 -25.234375 "/></g></g></g><g fill="#000000" fill-opacity="1"><g transform="translate(161.585292, 217.649986)"><g><path d="M 1.109375 -25.203125 L 22 -25.203125 L 22 -16.703125 L 16.78125 -16.703125 L 16.78125 -15.625 L 22 -15.625 L 22 -7.53125 L 16.34375 -7.53125 L 16.34375 0 L 1.109375 0 Z M 1.109375 -25.203125 "/></g></g></g><g fill="#000000" fill-opacity="1"><g transform="translate(184.625337, 217.649986)"><g><path d="M 13.171875 -25.203125 C 14.585938 -25.203125 15.914062 -24.9375 17.15625 -24.40625 C 18.394531 -23.875 19.488281 -23.140625 20.4375 -22.203125 C 21.382812 -21.273438 22.117188 -20.1875 22.640625 -18.9375 C 23.171875 -17.6875 23.4375 -16.351562 23.4375 -14.9375 C 23.4375 -13.300781 23.082031 -11.785156 22.375 -10.390625 C 21.664062 -9.003906 20.710938 -7.84375 19.515625 -6.90625 L 23.21875 0.03125 L 1.078125 0.03125 C 1.078125 -3.0625 1.078125 -5.59375 1.078125 -7.5625 C 1.078125 -9.53125 1.078125 -11.070312 1.078125 -12.1875 C 1.078125 -13.300781 1.078125 -14.109375 1.078125 -14.609375 C 1.078125 -15.117188 1.078125 -15.441406 1.078125 -15.578125 C 1.078125 -15.722656 1.078125 -15.8125 1.078125 -15.84375 C 1.078125 -15.882812 1.078125 -16 1.078125 -16.1875 C 1.078125 -16.382812 1.078125 -16.773438 1.078125 -17.359375 C 1.078125 -17.953125 1.078125 -18.863281 1.078125 -20.09375 C 1.078125 -21.332031 1.078125 -23.035156 1.078125 -25.203125 Z M 13.171875 -25.203125 "/></g></g></g><g fill="#000000" fill-opacity="1"><g transform="translate(208.457382, 217.649986)"><g><path d="M -1.015625 0 L 14.90625 -26.96875 L 30.8125 0 Z M -1.015625 0 "/></g></g></g><g fill="#000000" fill-opacity="1"><g transform="translate(238.157441, 217.649986)"><g><path d="M 1.078125 0 L 1.015625 -26.171875 L 13.609375 -16.625 L 26.203125 -26.171875 L 26.28125 0 Z M 1.078125 0 "/></g></g></g><g fill="#000000" fill-opacity="1"><g transform="translate(265.445499, 217.649986)"><g><path d="M 1.046875 -25.234375 L 21.921875 -25.234375 L 21.921875 -16.734375 L 16.703125 -16.734375 L 16.703125 -15.65625 L 21.921875 -15.65625 L 21.921875 -9.609375 L 16.703125 -9.609375 L 16.703125 -8.53125 L 21.921875 -8.53125 L 21.921875 -0.03125 L 1.046875 -0.03125 Z M 1.046875 -25.234375 "/></g></g></g><g fill="#000000" fill-opacity="1"><g transform="translate(78.673299, 267.899982)"><g><path d="M 6.4375 -25.203125 L 25.34375 -25.203125 L 25.34375 -12.53125 L 20.953125 -12.53125 L 20.953125 -12.28125 C 22.148438 -12.007812 23.117188 -11.519531 23.859375 -10.8125 C 24.609375 -10.101562 25.132812 -9.285156 25.4375 -8.359375 C 25.738281 -7.441406 25.828125 -6.488281 25.703125 -5.5 C 25.585938 -4.519531 25.273438 -3.609375 24.765625 -2.765625 C 24.265625 -1.929688 23.582031 -1.253906 22.71875 -0.734375 C 21.851562 -0.222656 20.804688 0.03125 19.578125 0.03125 L 0.828125 0.03125 L 0.828125 -12.53125 L 5.90625 -12.53125 L 5.90625 -12.78125 C 4.15625 -13.113281 2.765625 -13.8125 1.734375 -14.875 C 0.703125 -15.945312 0.1875 -17.300781 0.1875 -18.9375 C 0.1875 -20.019531 0.46875 -21.039062 1.03125 -22 C 1.59375 -22.957031 2.347656 -23.726562 3.296875 -24.3125 C 4.242188 -24.90625 5.289062 -25.203125 6.4375 -25.203125 Z M 6.4375 -25.203125 "/></g></g></g><g fill="#000000" fill-opacity="1"><g transform="translate(104.629344, 267.899982)"><g><path d="M 13.78125 -26.0625 C 15.632812 -26.0625 17.367188 -25.710938 18.984375 -25.015625 C 20.609375 -24.316406 22.035156 -23.347656 23.265625 -22.109375 C 24.503906 -20.878906 25.472656 -19.453125 26.171875 -17.828125 C 26.867188 -16.210938 27.21875 -14.484375 27.21875 -12.640625 C 27.21875 -10.785156 26.867188 -9.046875 26.171875 -7.421875 C 25.472656 -5.804688 24.503906 -4.378906 23.265625 -3.140625 C 22.035156 -1.910156 20.609375 -0.945312 18.984375 -0.25 C 17.367188 0.445312 15.632812 0.796875 13.78125 0.796875 C 11.9375 0.796875 10.203125 0.445312 8.578125 -0.25 C 6.960938 -0.945312 5.535156 -1.910156 4.296875 -3.140625 C 3.066406 -4.378906 2.101562 -5.804688 1.40625 -7.421875 C 0.707031 -9.046875 0.359375 -10.785156 0.359375 -12.640625 C 0.359375 -14.484375 0.707031 -16.210938 1.40625 -17.828125 C 2.101562 -19.453125 3.066406 -20.878906 4.296875 -22.109375 C 5.535156 -23.347656 6.960938 -24.316406 8.578125 -25.015625 C 10.203125 -25.710938 11.9375 -26.0625 13.78125 -26.0625 Z M 13.78125 -26.0625 "/></g></g></g><g fill="#000000" fill-opacity="1"><g transform="translate(132.385397, 267.899982)"><g><path d="M 1.109375 -25.203125 L 22 -25.203125 L 22 -16.703125 L 16.78125 -16.703125 L 16.78125 -15.625 L 22 -15.625 L 22 -7.53125 L 16.34375 -7.53125 L 16.34375 0 L 1.109375 0 Z M 1.109375 -25.203125 "/></g></g></g><g fill="#000000" fill-opacity="1"><g transform="translate(155.425441, 267.899982)"><g><path d="M 18.546875 -12.5625 L 18.546875 0.03125 L 5.9375 0.03125 L 5.9375 -12.5625 L 0.71875 -12.5625 L 0.71875 -25.203125 L 23.4375 -25.203125 L 23.4375 -12.5625 Z M 18.546875 -12.5625 "/></g></g></g><g fill="#000000" fill-opacity="1"><g transform="translate(179.617495, 267.899982)"><g><path d="M -0.9375 -25.265625 L 44.0625 -25.265625 L 28.1875 1.625 C 26.675781 -0.945312 25.171875 -3.46875 23.671875 -5.9375 C 22.171875 -8.40625 20.675781 -10.914062 19.1875 -13.46875 L 18.390625 -12.703125 L 20.953125 -8.390625 L 14.9375 1.625 Z M -0.9375 -25.265625 "/></g></g></g><g fill="#000000" fill-opacity="1"><g transform="translate(222.745582, 267.899982)"><g><path d="M -1.015625 0 L 14.90625 -26.96875 L 30.8125 0 Z M -1.015625 0 "/></g></g></g><g fill="#000000" fill-opacity="1"><g transform="translate(252.445641, 267.899982)"><g><path d="M 13.171875 -25.203125 C 14.585938 -25.203125 15.914062 -24.9375 17.15625 -24.40625 C 18.394531 -23.875 19.488281 -23.140625 20.4375 -22.203125 C 21.382812 -21.273438 22.117188 -20.1875 22.640625 -18.9375 C 23.171875 -17.6875 23.4375 -16.351562 23.4375 -14.9375 C 23.4375 -13.300781 23.082031 -11.785156 22.375 -10.390625 C 21.664062 -9.003906 20.710938 -7.84375 19.515625 -6.90625 L 23.21875 0.03125 L 1.078125 0.03125 C 1.078125 -3.0625 1.078125 -5.59375 1.078125 -7.5625 C 1.078125 -9.53125 1.078125 -11.070312 1.078125 -12.1875 C 1.078125 -13.300781 1.078125 -14.109375 1.078125 -14.609375 C 1.078125 -15.117188 1.078125 -15.441406 1.078125 -15.578125 C 1.078125 -15.722656 1.078125 -15.8125 1.078125 -15.84375 C 1.078125 -15.882812 1.078125 -16 1.078125 -16.1875 C 1.078125 -16.382812 1.078125 -16.773438 1.078125 -17.359375 C 1.078125 -17.953125 1.078125 -18.863281 1.078125 -20.09375 C 1.078125 -21.332031 1.078125 -23.035156 1.078125 -25.203125 Z M 13.171875 -25.203125 "/></g></g></g><g fill="#000000" fill-opacity="1"><g transform="translate(276.277686, 267.899982)"><g><path d="M 1.046875 -25.234375 L 21.921875 -25.234375 L 21.921875 -16.734375 L 16.703125 -16.734375 L 16.703125 -15.65625 L 21.921875 -15.65625 L 21.921875 -9.609375 L 16.703125 -9.609375 L 16.703125 -8.53125 L 21.921875 -8.53125 L 21.921875 -0.03125 L 1.046875 -0.03125 Z M 1.046875 -25.234375 "/></g></g></g><g fill="#ffffff" fill-opacity="1"><g transform="translate(89.513142, 87.523137)"><g><path d="M 1.046875 -25.234375 L 21.921875 -25.234375 L 21.921875 -16.734375 L 16.703125 -16.734375 L 16.703125 -15.65625 L 21.921875 -15.65625 L 21.921875 -9.609375 L 16.703125 -9.609375 L 16.703125 -8.53125 L 21.921875 -8.53125 L 21.921875 -0.03125 L 1.046875 -0.03125 Z M 1.046875 -25.234375 "/></g></g></g><g fill="#ffffff" fill-opacity="1"><g transform="translate(112.481192, 87.523137)"><g><path d="M 19.375 -12.59375 L 19.375 0 L 6.765625 0 L 6.765625 -12.59375 L -0.28125 -25.203125 L 26.421875 -25.203125 Z M 19.375 -12.59375 "/></g></g></g><g fill="#ffffff" fill-opacity="1"><g transform="translate(138.617241, 87.523137)"><g><path d="M 1.046875 -25.234375 L 21.921875 -25.234375 L 21.921875 -16.734375 L 16.703125 -16.734375 L 16.703125 -15.65625 L 21.921875 -15.65625 L 21.921875 -9.609375 L 16.703125 -9.609375 L 16.703125 -8.53125 L 21.921875 -8.53125 L 21.921875 -0.03125 L 1.046875 -0.03125 Z M 1.046875 -25.234375 "/></g></g></g><g fill="#ffffff" fill-opacity="1"><g transform="translate(161.585292, 87.523137)"><g><path d="M 1.109375 -25.203125 L 22 -25.203125 L 22 -16.703125 L 16.78125 -16.703125 L 16.78125 -15.625 L 22 -15.625 L 22 -7.53125 L 16.34375 -7.53125 L 16.34375 0 L 1.109375 0 Z M 1.109375 -25.203125 "/></g></g></g><g fill="#ffffff" fill-opacity="1"><g transform="translate(184.625337, 87.523137)"><g><path d="M 13.171875 -25.203125 C 14.585938 -25.203125 15.914062 -24.9375 17.15625 -24.40625 C 18.394531 -23.875 19.488281 -23.140625 20.4375 -22.203125 C 21.382812 -21.273438 22.117188 -20.1875 22.640625 -18.9375 C 23.171875 -17.6875 23.4375 -16.351562 23.4375 -14.9375 C 23.4375 -13.300781 23.082031 -11.785156 22.375 -10.390625 C 21.664062 -9.003906 20.710938 -7.84375 19.515625 -6.90625 L 23.21875 0.03125 L 1.078125 0.03125 C 1.078125 -3.0625 1.078125 -5.59375 1.078125 -7.5625 C 1.078125 -9.53125 1.078125 -11.070312 1.078125 -12.1875 C 1.078125 -13.300781 1.078125 -14.109375 1.078125 -14.609375 C 1.078125 -15.117188 1.078125 -15.441406 1.078125 -15.578125 C 1.078125 -15.722656 1.078125 -15.8125 1.078125 -15.84375 C 1.078125 -15.882812 1.078125 -16 1.078125 -16.1875 C 1.078125 -16.382812 1.078125 -16.773438 1.078125 -17.359375 C 1.078125 -17.953125 1.078125 -18.863281 1.078125 -20.09375 C 1.078125 -21.332031 1.078125 -23.035156 1.078125 -25.203125 Z M 13.171875 -25.203125 "/></g></g></g><g fill="#ffffff" fill-opacity="1"><g transform="translate(208.457382, 87.523137)"><g><path d="M -1.015625 0 L 14.90625 -26.96875 L 30.8125 0 Z M -1.015625 0 "/></g></g></g><g fill="#ffffff" fill-opacity="1"><g transform="translate(238.157441, 87.523137)"><g><path d="M 1.078125 0 L 1.015625 -26.171875 L 13.609375 -16.625 L 26.203125 -26.171875 L 26.28125 0 Z M 1.078125 0 "/></g></g></g><g fill="#ffffff" fill-opacity="1"><g transform="translate(265.445499, 87.523137)"><g><path d="M 1.046875 -25.234375 L 21.921875 -25.234375 L 21.921875 -16.734375 L 16.703125 -16.734375 L 16.703125 -15.65625 L 21.921875 -15.65625 L 21.921875 -9.609375 L 16.703125 -9.609375 L 16.703125 -8.53125 L 21.921875 -8.53125 L 21.921875 -0.03125 L 1.046875 -0.03125 Z M 1.046875 -25.234375 "/></g></g></g><g fill="#ffffff" fill-opacity="1"><g transform="translate(78.673299, 137.773133)"><g><path d="M 6.4375 -25.203125 L 25.34375 -25.203125 L 25.34375 -12.53125 L 20.953125 -12.53125 L 20.953125 -12.28125 C 22.148438 -12.007812 23.117188 -11.519531 23.859375 -10.8125 C 24.609375 -10.101562 25.132812 -9.285156 25.4375 -8.359375 C 25.738281 -7.441406 25.828125 -6.488281 25.703125 -5.5 C 25.585938 -4.519531 25.273438 -3.609375 24.765625 -2.765625 C 24.265625 -1.929688 23.582031 -1.253906 22.71875 -0.734375 C 21.851562 -0.222656 20.804688 0.03125 19.578125 0.03125 L 0.828125 0.03125 L 0.828125 -12.53125 L 5.90625 -12.53125 L 5.90625 -12.78125 C 4.15625 -13.113281 2.765625 -13.8125 1.734375 -14.875 C 0.703125 -15.945312 0.1875 -17.300781 0.1875 -18.9375 C 0.1875 -20.019531 0.46875 -21.039062 1.03125 -22 C 1.59375 -22.957031 2.347656 -23.726562 3.296875 -24.3125 C 4.242188 -24.90625 5.289062 -25.203125 6.4375 -25.203125 Z M 6.4375 -25.203125 "/></g></g></g><g fill="#ffffff" fill-opacity="1"><g transform="translate(104.629344, 137.773133)"><g><path d="M 13.78125 -26.0625 C 15.632812 -26.0625 17.367188 -25.710938 18.984375 -25.015625 C 20.609375 -24.316406 22.035156 -23.347656 23.265625 -22.109375 C 24.503906 -20.878906 25.472656 -19.453125 26.171875 -17.828125 C 26.867188 -16.210938 27.21875 -14.484375 27.21875 -12.640625 C 27.21875 -10.785156 26.867188 -9.046875 26.171875 -7.421875 C 25.472656 -5.804688 24.503906 -4.378906 23.265625 -3.140625 C 22.035156 -1.910156 20.609375 -0.945312 18.984375 -0.25 C 17.367188 0.445312 15.632812 0.796875 13.78125 0.796875 C 11.9375 0.796875 10.203125 0.445312 8.578125 -0.25 C 6.960938 -0.945312 5.535156 -1.910156 4.296875 -3.140625 C 3.066406 -4.378906 2.101562 -5.804688 1.40625 -7.421875 C 0.707031 -9.046875 0.359375 -10.785156 0.359375 -12.640625 C 0.359375 -14.484375 0.707031 -16.210938 1.40625 -17.828125 C 2.101562 -19.453125 3.066406 -20.878906 4.296875 -22.109375 C 5.535156 -23.347656 6.960938 -24.316406 8.578125 -25.015625 C 10.203125 -25.710938 11.9375 -26.0625 13.78125 -26.0625 Z M 13.78125 -26.0625 "/></g></g></g><g fill="#ffffff" fill-opacity="1"><g transform="translate(132.385397, 137.773133)"><g><path d="M 1.109375 -25.203125 L 22 -25.203125 L 22 -16.703125 L 16.78125 -16.703125 L 16.78125 -15.625 L 22 -15.625 L 22 -7.53125 L 16.34375 -7.53125 L 16.34375 0 L 1.109375 0 Z M 1.109375 -25.203125 "/></g></g></g><g fill="#ffffff" fill-opacity="1"><g transform="translate(155.425441, 137.773133)"><g><path d="M 18.546875 -12.5625 L 18.546875 0.03125 L 5.9375 0.03125 L 5.9375 -12.5625 L 0.71875 -12.5625 L 0.71875 -25.203125 L 23.4375 -25.203125 L 23.4375 -12.5625 Z M 18.546875 -12.5625 "/></g></g></g><g fill="#ffffff" fill-opacity="1"><g transform="translate(179.617495, 137.773133)"><g><path d="M -0.9375 -25.265625 L 44.0625 -25.265625 L 28.1875 1.625 C 26.675781 -0.945312 25.171875 -3.46875 23.671875 -5.9375 C 22.171875 -8.40625 20.675781 -10.914062 19.1875 -13.46875 L 18.390625 -12.703125 L 20.953125 -8.390625 L 14.9375 1.625 Z M -0.9375 -25.265625 "/></g></g></g><g fill="#ffffff" fill-opacity="1"><g transform="translate(222.745582, 137.773133)"><g><path d="M -1.015625 0 L 14.90625 -26.96875 L 30.8125 0 Z M -1.015625 0 "/></g></g></g><g fill="#ffffff" fill-opacity="1"><g transform="translate(252.445641, 137.773133)"><g><path d="M 13.171875 -25.203125 C 14.585938 -25.203125 15.914062 -24.9375 17.15625 -24.40625 C 18.394531 -23.875 19.488281 -23.140625 20.4375 -22.203125 C 21.382812 -21.273438 22.117188 -20.1875 22.640625 -18.9375 C 23.171875 -17.6875 23.4375 -16.351562 23.4375 -14.9375 C 23.4375 -13.300781 23.082031 -11.785156 22.375 -10.390625 C 21.664062 -9.003906 20.710938 -7.84375 19.515625 -6.90625 L 23.21875 0.03125 L 1.078125 0.03125 C 1.078125 -3.0625 1.078125 -5.59375 1.078125 -7.5625 C 1.078125 -9.53125 1.078125 -11.070312 1.078125 -12.1875 C 1.078125 -13.300781 1.078125 -14.109375 1.078125 -14.609375 C 1.078125 -15.117188 1.078125 -15.441406 1.078125 -15.578125 C 1.078125 -15.722656 1.078125 -15.8125 1.078125 -15.84375 C 1.078125 -15.882812 1.078125 -16 1.078125 -16.1875 C 1.078125 -16.382812 1.078125 -16.773438 1.078125 -17.359375 C 1.078125 -17.953125 1.078125 -18.863281 1.078125 -20.09375 C 1.078125 -21.332031 1.078125 -23.035156 1.078125 -25.203125 Z M 13.171875 -25.203125 "/></g></g></g><g fill="#ffffff" fill-opacity="1"><g transform="translate(276.277686, 137.773133)"><g><path d="M 1.046875 -25.234375 L 21.921875 -25.234375 L 21.921875 -16.734375 L 16.703125 -16.734375 L 16.703125 -15.65625 L 21.921875 -15.65625 L 21.921875 -9.609375 L 16.703125 -9.609375 L 16.703125 -8.53125 L 21.921875 -8.53125 L 21.921875 -0.03125 L 1.046875 -0.03125 Z M 1.046875 -25.234375 "/></g></g></g></svg>